<?xml version="1.0" encoding="UTF-8"?><svg id="a" xmlns="http://www.w3.org/2000/svg" viewBox="0 0 340.16 262.77"><defs><style>.b{fill:#322989;}</style></defs><path class="b" d="M55.86,.02H124.18l47.6,70.19L218.78,.02h66.33l-78.53,97.54h-70.84L55.86,.02Z"/><g><path class="b" d="M27.83,137.56l10.49-25.49h15.74v1.06h-1.25c-1.14,0-2.05,.2-2.74,.6-.48,.27-.86,.71-1.14,1.34-.21,.46-.31,1.64-.31,3.56v25.49c0,1.98,.1,3.21,.31,3.71,.21,.49,.64,.93,1.28,1.3,.65,.37,1.51,.56,2.59,.56h1.25v1.06h-20.19v-1.06h1.25c1.14,0,2.05-.2,2.74-.6,.48-.27,.86-.72,1.14-1.37,.21-.46,.31-1.65,.31-3.59v-28.66l-14.83,35.27h-.68l-15.06-35.02v27.23c0,1.9,.05,3.07,.14,3.51,.25,.95,.78,1.73,1.61,2.32,.83,.6,2.12,.9,3.89,.9v1.06H1.17v-1.06h.4c.86,.02,1.65-.12,2.4-.41,.74-.29,1.3-.69,1.68-1.18,.38-.49,.67-1.19,.88-2.08,.04-.21,.06-1.18,.06-2.91v-24.47c0-1.96-.1-3.18-.31-3.66-.21-.48-.64-.91-1.28-1.28-.65-.37-1.51-.56-2.6-.56H1.17v-1.06h15.8l10.86,25.49Z"/><path class="b" d="M77.67,111.52c6.16-.23,11.16,1.57,15.01,5.39,3.85,3.82,5.77,8.6,5.77,14.34,0,4.9-1.44,9.22-4.31,12.95-3.8,4.94-9.17,7.41-16.11,7.41s-12.34-2.36-16.14-7.07c-3-3.73-4.51-8.15-4.51-13.26,0-5.74,1.95-10.53,5.86-14.36,3.91-3.83,8.71-5.63,14.41-5.4Zm.34,1.83c-3.54,0-6.23,1.81-8.07,5.42-1.5,2.97-2.25,7.22-2.25,12.77,0,6.6,1.16,11.47,3.48,14.63,1.62,2.21,3.88,3.31,6.79,3.31,1.96,0,3.59-.47,4.9-1.43,1.67-1.22,2.97-3.16,3.91-5.83,.93-2.67,1.4-6.15,1.4-10.45,0-5.11-.48-8.94-1.43-11.48-.95-2.54-2.16-4.33-3.64-5.38-1.47-1.05-3.17-1.57-5.09-1.57Z"/><path class="b" d="M123.1,111.52c6.16-.23,11.16,1.57,15.01,5.39,3.85,3.82,5.77,8.6,5.77,14.34,0,4.9-1.44,9.22-4.31,12.95-3.8,4.94-9.17,7.41-16.11,7.41s-12.34-2.36-16.14-7.07c-3-3.73-4.51-8.15-4.51-13.26,0-5.74,1.95-10.53,5.86-14.36,3.91-3.83,8.71-5.63,14.41-5.4Zm.34,1.83c-3.54,0-6.23,1.81-8.07,5.42-1.5,2.97-2.25,7.22-2.25,12.77,0,6.6,1.16,11.47,3.48,14.63,1.62,2.21,3.88,3.31,6.79,3.31,1.96,0,3.59-.47,4.9-1.43,1.67-1.22,2.97-3.16,3.91-5.83,.93-2.67,1.4-6.15,1.4-10.45,0-5.11-.48-8.94-1.43-11.48-.95-2.54-2.16-4.33-3.64-5.38-1.47-1.05-3.17-1.57-5.09-1.57Z"/><path class="b" d="M160.51,112.07l19.08,23.98v-16.62c0-2.32-.33-3.89-1-4.71-.91-1.1-2.44-1.63-4.59-1.6v-1.06h12.77v1.06c-1.64,.21-2.73,.48-3.29,.81-.56,.33-1,.87-1.31,1.63-.31,.75-.47,2.04-.47,3.86v32.19h-.97l-26.15-32.19v24.58c0,2.22,.51,3.73,1.53,4.51,1.02,.78,2.18,1.17,3.49,1.17h.91v1.06h-13.72v-1.06c2.13-.02,3.61-.46,4.45-1.31,.84-.86,1.25-2.31,1.25-4.36v-27.29l-.83-1.03c-.82-1.03-1.54-1.7-2.17-2.02-.63-.32-1.53-.5-2.71-.54v-1.06h13.72Z"/><path class="b" d="M215.57,111.18l.31,12.89h-1.17c-.55-3.23-1.91-5.83-4.06-7.8-2.16-1.97-4.49-2.95-7-2.95-1.94,0-3.47,.52-4.61,1.55-1.13,1.04-1.7,2.23-1.7,3.58,0,.86,.2,1.62,.6,2.28,.55,.89,1.44,1.78,2.65,2.65,.89,.63,2.96,1.74,6.19,3.34,4.52,2.22,7.57,4.32,9.15,6.3,1.56,1.98,2.34,4.24,2.34,6.79,0,3.23-1.26,6.01-3.78,8.34s-5.72,3.49-9.6,3.49c-1.22,0-2.37-.12-3.45-.37-1.08-.25-2.44-.71-4.08-1.4-.91-.38-1.66-.57-2.25-.57-.49,0-1.02,.19-1.57,.57-.55,.38-1,.96-1.34,1.74h-1.06v-14.6h1.06c.84,4.11,2.45,7.24,4.83,9.4,2.38,2.16,4.96,3.24,7.71,3.24,2.13,0,3.83-.58,5.09-1.74,1.27-1.16,1.9-2.51,1.9-4.05,0-.91-.24-1.8-.73-2.65s-1.22-1.67-2.21-2.44-2.74-1.77-5.25-3.01c-3.52-1.73-6.04-3.2-7.58-4.42-1.54-1.22-2.72-2.58-3.55-4.08-.83-1.5-1.24-3.16-1.24-4.96,0-3.08,1.13-5.7,3.39-7.87,2.26-2.17,5.11-3.25,8.55-3.25,1.26,0,2.47,.15,3.65,.46,.89,.23,1.98,.65,3.27,1.27s2.18,.93,2.69,.93,.88-.15,1.17-.46c.29-.3,.55-1.04,.8-2.2h.86Z"/><path class="b" d="M257.46,112.07v10.46h-1.03c-.61-2.41-1.28-4.15-2.02-5.2-.74-1.05-1.76-1.9-3.05-2.52-.72-.34-1.99-.51-3.79-.51h-2.88v29.83c0,1.98,.11,3.21,.33,3.71,.22,.49,.65,.93,1.28,1.3,.64,.37,1.51,.56,2.61,.56h1.28v1.06h-20.25v-1.06h1.28c1.12,0,2.02-.2,2.71-.6,.49-.27,.88-.72,1.17-1.37,.21-.46,.31-1.65,.31-3.59v-29.83h-2.79c-2.6,0-4.5,.55-5.67,1.65-1.65,1.54-2.7,3.74-3.14,6.59h-1.08v-10.46h34.73Z"/><path class="b" d="M279.53,139.73h-13.66l-1.62,3.76c-.53,1.25-.8,2.29-.8,3.11,0,1.08,.44,1.88,1.31,2.4,.51,.3,1.78,.53,3.79,.68v1.06h-12.86v-1.06c1.39-.21,2.53-.78,3.42-1.73s2-2.88,3.31-5.83l13.83-30.85h.54l13.94,31.71c1.33,3,2.42,4.9,3.28,5.67,.65,.59,1.56,.93,2.74,1.03v1.06h-18.71v-1.06h.77c1.5,0,2.56-.21,3.17-.63,.42-.3,.63-.74,.63-1.31,0-.34-.06-.69-.17-1.06-.04-.17-.32-.88-.86-2.14l-2.05-4.82Zm-.97-2.11l-5.76-13.32-5.93,13.32h11.69Z"/><path class="b" d="M312.92,133.11v10.84c0,2.09,.13,3.41,.39,3.95,.26,.54,.71,.97,1.35,1.3,.65,.32,1.85,.48,3.62,.48v1.06h-19.79v-1.06c1.79,0,3-.17,3.63-.5,.64-.33,1.08-.76,1.34-1.3,.26-.53,.38-1.84,.38-3.94v-25.09c0-2.09-.13-3.41-.38-3.95-.26-.54-.71-.97-1.35-1.3-.65-.32-1.85-.48-3.62-.48v-1.06h17.96c4.68,0,8.1,.32,10.27,.97,2.17,.65,3.93,1.84,5.3,3.58,1.37,1.74,2.05,3.78,2.05,6.12,0,2.85-1.03,5.21-3.08,7.07-1.31,1.18-3.15,2.06-5.5,2.65l9.3,13.09c1.22,1.69,2.08,2.75,2.59,3.17,.78,.59,1.68,.91,2.71,.97v1.06h-12.18l-12.46-17.62h-2.54Zm0-18.96v16.94h1.63c2.64,0,4.62-.24,5.93-.73,1.31-.48,2.34-1.36,3.09-2.62s1.13-2.91,1.13-4.95c0-2.95-.69-5.12-2.07-6.53-1.38-1.41-3.6-2.11-6.66-2.11h-3.05Z"/></g><path class="b" d="M284.3,262.74h-68.32l-47.6-70.19-46.99,70.19H55.05l78.53-97.54h70.84l79.88,97.54Z"/></svg>